<?xml version="1.0" standalone="no"?>
<!DOCTYPE svg PUBLIC "-//W3C//DTD SVG 20010904//EN"
 "http://www.w3.org/TR/2001/REC-SVG-20010904/DTD/svg10.dtd">
<svg version="1.0" xmlns="http://www.w3.org/2000/svg"
 width="205.000000pt" height="219.000000pt" viewBox="0 0 205.000000 219.000000"
 preserveAspectRatio="xMidYMid meet">

<g transform="translate(0.000000,219.000000) scale(0.100000,-0.100000)"
fill="#000000" stroke="none">
<path d="M1701 1842 c-41 -70 -148 -251 -236 -402 -89 -151 -222 -377 -296
-503 -73 -125 -138 -226 -143 -224 -5 2 -183 281 -395 621 l-386 618 -3 -314
c-2 -172 0 -426 3 -564 l7 -251 120 -149 c66 -82 123 -150 127 -152 5 -1 9
109 10 245 1 136 3 249 5 250 1 1 81 -125 179 -280 300 -480 332 -530 342
-530 6 0 53 74 106 164 53 90 158 270 234 399 75 129 142 240 149 247 8 9 10
-62 8 -280 l-2 -292 125 188 125 188 0 575 c0 316 -1 574 -2 574 -2 0 -36 -58
-77 -128z"/>
<path d="M1335 1604 c-95 -33 -163 -67 -218 -109 -41 -31 -52 -35 -108 -35
-51 0 -68 4 -96 25 -56 44 -273 137 -273 119 0 -3 43 -90 96 -195 l96 -190 26
17 c15 9 41 27 57 39 39 29 156 43 174 21 15 -18 111 -80 115 -75 11 14 207
401 204 404 -2 2 -35 -8 -73 -21z"/>
</g>
</svg>
