<?xml version="1.0" standalone="no"?>
<!DOCTYPE svg PUBLIC "-//W3C//DTD SVG 20010904//EN"
 "http://www.w3.org/TR/2001/REC-SVG-20010904/DTD/svg10.dtd">
<svg version="1.0" xmlns="http://www.w3.org/2000/svg"
 width="356.000000pt" height="144.000000pt" viewBox="0 0 356.000000 144.000000"
 preserveAspectRatio="xMidYMid meet">

<g transform="translate(0.000000,144.000000) scale(0.100000,-0.100000)"
fill="#000000" stroke="none">
<path d="M1284 1329 c-5 -8 -55 -89 -109 -181 -55 -93 -103 -168 -106 -168 -4
0 -58 80 -121 178 l-113 177 -3 -163 -3 -163 38 -46 38 -46 5 72 5 73 73 -116
c40 -64 77 -116 81 -116 5 0 40 52 77 116 l69 115 5 -82 5 -83 38 57 37 57 -2
167 c-2 120 -6 162 -14 152z"/>
<path d="M2536 1320 c-81 -25 -118 -116 -80 -197 22 -44 46 -60 140 -89 42
-12 82 -28 90 -35 23 -19 17 -65 -12 -88 -52 -41 -134 -18 -154 43 -10 33 -13
34 -48 29 -50 -8 -53 -12 -41 -58 30 -107 167 -155 285 -99 95 45 99 220 7
267 -15 8 -55 22 -88 32 -78 22 -105 40 -105 70 0 32 29 47 83 43 35 -3 45 -8
62 -36 18 -30 24 -32 58 -28 21 2 41 7 45 10 3 4 -3 28 -14 54 -15 38 -28 51
-64 70 -46 23 -110 28 -164 12z"/>
<path d="M1370 1065 l0 -255 175 0 175 0 0 40 0 39 -127 3 -128 3 -3 73 -3 72
116 0 115 0 0 40 0 39 -112 3 -113 3 -3 58 -3 57 126 0 125 0 0 40 0 40 -170
0 -170 0 0 -255z"/>
<path d="M1810 1065 l0 -255 40 0 40 0 0 162 c0 139 2 160 14 148 8 -8 49 -81
92 -162 l79 -148 48 0 47 0 0 255 0 255 -45 0 -45 0 -2 -165 -3 -164 -88 164
-89 165 -44 0 -44 0 0 -255z"/>
<path d="M2260 1275 c0 -37 3 -45 18 -45 10 0 22 -3 25 -6 8 -8 -12 -47 -29
-57 -16 -9 -18 -33 -4 -42 17 -11 51 16 66 50 8 19 14 59 14 90 l0 55 -45 0
-45 0 0 -45z"/>
<path d="M977 1186 c26 -53 44 -68 58 -46 3 6 17 10 30 10 13 0 27 -4 30 -10
14 -22 32 -7 58 45 15 30 22 55 16 55 -5 0 -27 -9 -49 -20 -46 -24 -73 -25
-103 -6 -12 8 -32 17 -45 21 l-23 7 28 -56z"/>
<path d="M258 610 c-140 -42 -196 -293 -97 -430 81 -111 262 -103 318 14 28
57 27 72 -10 85 -43 15 -47 14 -54 -9 -4 -11 -18 -34 -32 -50 -44 -53 -123
-37 -160 33 -23 44 -23 170 0 214 45 85 141 85 192 0 8 -13 18 -15 45 -8 30 6
35 11 33 34 -6 88 -130 149 -235 117z"/>
<path d="M1095 601 c-49 -22 -98 -76 -116 -128 -17 -49 -17 -187 0 -237 58
-168 291 -194 385 -43 24 40 30 61 34 128 3 46 -1 105 -8 136 -28 129 -173
200 -295 144z m162 -95 c77 -65 69 -256 -12 -306 -63 -39 -136 -15 -170 56
-23 49 -24 157 -2 201 39 74 126 98 184 49z"/>
<path d="M3100 607 c-50 -16 -105 -76 -125 -137 -24 -71 -17 -198 13 -257 59
-114 204 -152 332 -88 55 28 61 44 58 151 l-3 99 -92 3 -93 3 0 -46 0 -45 50
0 50 0 0 -35 c0 -31 -5 -37 -42 -56 -54 -28 -109 -21 -149 17 -75 72 -62 259
21 301 14 7 43 13 64 13 33 0 45 -7 77 -40 36 -37 42 -40 71 -32 42 10 46 36
16 82 -46 69 -152 97 -248 67z"/>
<path d="M599 593 c-3 -15 -3 -416 0 -475 1 -16 15 -18 156 -18 l155 0 0 40 0
40 -110 0 -110 0 -2 213 -3 212 -41 3 c-33 2 -42 -1 -45 -15z"/>
<path d="M1450 570 l0 -40 65 0 65 0 0 -215 0 -215 45 0 45 0 0 215 0 215 70
0 70 0 0 40 0 40 -180 0 -180 0 0 -40z"/>
<path d="M1870 355 l0 -255 45 0 45 0 0 115 0 115 95 0 95 0 0 -115 0 -115 45
0 45 0 0 255 0 255 -45 0 -44 0 -3 -97 -3 -98 -90 0 -90 0 -3 98 -3 97 -44 0
-45 0 0 -255z"/>
<path d="M2330 355 l0 -255 45 0 45 0 0 255 0 255 -45 0 -45 0 0 -255z"/>
<path d="M2520 355 l0 -255 40 0 40 0 0 162 c0 94 4 158 9 152 5 -5 23 -36 41
-69 18 -33 55 -102 84 -153 l51 -93 45 3 45 3 3 253 2 252 -45 0 -45 0 -2
-167 -3 -167 -90 167 -89 167 -43 0 -43 0 0 -255z"/>
</g>
</svg>
