<svg aria-hidden="true" style="position: absolute; width: 0; height: 0; overflow: hidden;" version="1.1" xmlns="http://www.w3.org/2000/svg" xmlns:xlink="http://www.w3.org/1999/xlink">
<defs>
<symbol id="icon-twitter" viewBox="0 0 26 28">
<path d="M25.312 6.375c-0.688 1-1.547 1.891-2.531 2.609 0.016 0.219 0.016 0.438 0.016 0.656 0 6.672-5.078 14.359-14.359 14.359-2.859 0-5.516-0.828-7.75-2.266 0.406 0.047 0.797 0.063 1.219 0.063 2.359 0 4.531-0.797 6.266-2.156-2.219-0.047-4.078-1.5-4.719-3.5 0.313 0.047 0.625 0.078 0.953 0.078 0.453 0 0.906-0.063 1.328-0.172-2.312-0.469-4.047-2.5-4.047-4.953v-0.063c0.672 0.375 1.453 0.609 2.281 0.641-1.359-0.906-2.25-2.453-2.25-4.203 0-0.938 0.25-1.797 0.688-2.547 2.484 3.062 6.219 5.063 10.406 5.281-0.078-0.375-0.125-0.766-0.125-1.156 0-2.781 2.25-5.047 5.047-5.047 1.453 0 2.766 0.609 3.687 1.594 1.141-0.219 2.234-0.641 3.203-1.219-0.375 1.172-1.172 2.156-2.219 2.781 1.016-0.109 2-0.391 2.906-0.781z"></path>
</symbol>
<symbol id="icon-facebook" viewBox="0 0 16 28">
<path d="M14.984 0.187v4.125h-2.453c-1.922 0-2.281 0.922-2.281 2.25v2.953h4.578l-0.609 4.625h-3.969v11.859h-4.781v-11.859h-3.984v-4.625h3.984v-3.406c0-3.953 2.422-6.109 5.953-6.109 1.687 0 3.141 0.125 3.563 0.187z"></path>
</symbol>
<symbol id="icon-envelope" viewBox="0 0 28 28">
<path d="M28 11.094v12.406c0 1.375-1.125 2.5-2.5 2.5h-23c-1.375 0-2.5-1.125-2.5-2.5v-12.406c0.469 0.516 1 0.969 1.578 1.359 2.594 1.766 5.219 3.531 7.766 5.391 1.313 0.969 2.938 2.156 4.641 2.156h0.031c1.703 0 3.328-1.188 4.641-2.156 2.547-1.844 5.172-3.625 7.781-5.391 0.562-0.391 1.094-0.844 1.563-1.359zM28 6.5c0 1.75-1.297 3.328-2.672 4.281-2.438 1.687-4.891 3.375-7.313 5.078-1.016 0.703-2.734 2.141-4 2.141h-0.031c-1.266 0-2.984-1.437-4-2.141-2.422-1.703-4.875-3.391-7.297-5.078-1.109-0.75-2.688-2.516-2.688-3.938 0-1.531 0.828-2.844 2.5-2.844h23c1.359 0 2.5 1.125 2.5 2.5z"></path>
</symbol>
<symbol id="icon-linkedin" viewBox="0 0 24 28">
<path d="M5.453 9.766v15.484h-5.156v-15.484h5.156zM5.781 4.984c0.016 1.484-1.109 2.672-2.906 2.672v0h-0.031c-1.734 0-2.844-1.188-2.844-2.672 0-1.516 1.156-2.672 2.906-2.672 1.766 0 2.859 1.156 2.875 2.672zM24 16.375v8.875h-5.141v-8.281c0-2.078-0.75-3.5-2.609-3.5-1.422 0-2.266 0.953-2.641 1.875-0.125 0.344-0.172 0.797-0.172 1.266v8.641h-5.141c0.063-14.031 0-15.484 0-15.484h5.141v2.25h-0.031c0.672-1.062 1.891-2.609 4.672-2.609 3.391 0 5.922 2.219 5.922 6.969z"></path>
</symbol>
<symbol id="icon-youtube-play" viewBox="0 0 28 28">
<path d="M11.109 17.625l7.562-3.906-7.562-3.953v7.859zM14 4.156c5.891 0 9.797 0.281 9.797 0.281 0.547 0.063 1.75 0.063 2.812 1.188 0 0 0.859 0.844 1.109 2.781 0.297 2.266 0.281 4.531 0.281 4.531v2.125s0.016 2.266-0.281 4.531c-0.25 1.922-1.109 2.781-1.109 2.781-1.062 1.109-2.266 1.109-2.812 1.172 0 0-3.906 0.297-9.797 0.297v0c-7.281-0.063-9.516-0.281-9.516-0.281-0.625-0.109-2.031-0.078-3.094-1.188 0 0-0.859-0.859-1.109-2.781-0.297-2.266-0.281-4.531-0.281-4.531v-2.125s-0.016-2.266 0.281-4.531c0.25-1.937 1.109-2.781 1.109-2.781 1.062-1.125 2.266-1.125 2.812-1.188 0 0 3.906-0.281 9.797-0.281v0z"></path>
</symbol>
<symbol id="icon-instagram" viewBox="0 0 24 28">
<path d="M16 14c0-2.203-1.797-4-4-4s-4 1.797-4 4 1.797 4 4 4 4-1.797 4-4zM18.156 14c0 3.406-2.75 6.156-6.156 6.156s-6.156-2.75-6.156-6.156 2.75-6.156 6.156-6.156 6.156 2.75 6.156 6.156zM19.844 7.594c0 0.797-0.641 1.437-1.437 1.437s-1.437-0.641-1.437-1.437 0.641-1.437 1.437-1.437 1.437 0.641 1.437 1.437zM12 4.156c-1.75 0-5.5-0.141-7.078 0.484-0.547 0.219-0.953 0.484-1.375 0.906s-0.688 0.828-0.906 1.375c-0.625 1.578-0.484 5.328-0.484 7.078s-0.141 5.5 0.484 7.078c0.219 0.547 0.484 0.953 0.906 1.375s0.828 0.688 1.375 0.906c1.578 0.625 5.328 0.484 7.078 0.484s5.5 0.141 7.078-0.484c0.547-0.219 0.953-0.484 1.375-0.906s0.688-0.828 0.906-1.375c0.625-1.578 0.484-5.328 0.484-7.078s0.141-5.5-0.484-7.078c-0.219-0.547-0.484-0.953-0.906-1.375s-0.828-0.688-1.375-0.906c-1.578-0.625-5.328-0.484-7.078-0.484zM24 14c0 1.656 0.016 3.297-0.078 4.953-0.094 1.922-0.531 3.625-1.937 5.031s-3.109 1.844-5.031 1.937c-1.656 0.094-3.297 0.078-4.953 0.078s-3.297 0.016-4.953-0.078c-1.922-0.094-3.625-0.531-5.031-1.937s-1.844-3.109-1.937-5.031c-0.094-1.656-0.078-3.297-0.078-4.953s-0.016-3.297 0.078-4.953c0.094-1.922 0.531-3.625 1.937-5.031s3.109-1.844 5.031-1.937c1.656-0.094 3.297-0.078 4.953-0.078s3.297-0.016 4.953 0.078c1.922 0.094 3.625 0.531 5.031 1.937s1.844 3.109 1.937 5.031c0.094 1.656 0.078 3.297 0.078 4.953z"></path>
</symbol>
<symbol id="icon-arrow-right2" viewBox="0 0 32 32">
<path d="M19.414 27.414l10-10c0.781-0.781 0.781-2.047 0-2.828l-10-10c-0.781-0.781-2.047-0.781-2.828 0s-0.781 2.047 0 2.828l6.586 6.586h-19.172c-1.105 0-2 0.895-2 2s0.895 2 2 2h19.172l-6.586 6.586c-0.39 0.39-0.586 0.902-0.586 1.414s0.195 1.024 0.586 1.414c0.781 0.781 2.047 0.781 2.828 0z"></path>
</symbol>
<symbol id="icon-arrow-left2" viewBox="0 0 32 32">
<path d="M12.586 27.414l-10-10c-0.781-0.781-0.781-2.047 0-2.828l10-10c0.781-0.781 2.047-0.781 2.828 0s0.781 2.047 0 2.828l-6.586 6.586h19.172c1.105 0 2 0.895 2 2s-0.895 2-2 2h-19.172l6.586 6.586c0.39 0.39 0.586 0.902 0.586 1.414s-0.195 1.024-0.586 1.414c-0.781 0.781-2.047 0.781-2.828 0z"></path>
</symbol>
<symbol id="icon-heart" viewBox="0 0 32 32">
<path d="M23.6 2c-3.363 0-6.258 2.736-7.599 5.594-1.342-2.858-4.237-5.594-7.601-5.594-4.637 0-8.4 3.764-8.4 8.401 0 9.433 9.516 11.906 16.001 21.232 6.13-9.268 15.999-12.1 15.999-21.232 0-4.637-3.763-8.401-8.4-8.401z"></path>
</symbol>
<symbol id="icon-preview" viewBox="0 0 24 24">
<path d="M18.984 3h-13.969q-0.844 0-1.43 0.586t-0.586 1.43v13.969q0 0.844 0.586 1.43t1.43 0.586h13.969q0.844 0 1.43-0.586t0.586-1.43v-13.969q0-0.844-0.586-1.43t-1.43-0.586zM18.984 18.984h-13.969v-12h13.969v12zM13.5 12.984q0 0.656-0.445 1.078t-1.055 0.422-1.055-0.422-0.445-1.078q0-0.609 0.445-1.055t1.055-0.445 1.055 0.445 0.445 1.055zM12 9q-1.359 0-2.555 0.516t-2.086 1.406-1.359 2.063q0.469 1.172 1.359 2.086t2.086 1.43 2.555 0.516 2.555-0.516 2.086-1.43 1.359-2.086q-0.469-1.172-1.359-2.063t-2.086-1.406-2.555-0.516zM12 15.516q-1.031 0-1.758-0.75t-0.727-1.781 0.727-1.758 1.758-0.727 1.758 0.727 0.727 1.758-0.727 1.781-1.758 0.75z"></path>
</symbol>
<symbol id="icon-high_quality" viewBox="0 0 24 24">
<path d="M14.484 13.5v-3h2.016v3h-2.016zM18 14.016v-4.031q0-0.422-0.281-0.703t-0.703-0.281h-3q-0.422 0-0.727 0.281t-0.305 0.703v4.031q0 0.422 0.305 0.703t0.727 0.281h0.75v1.5h1.5v-1.5h0.75q0.422 0 0.703-0.281t0.281-0.703zM11.016 15v-6h-1.5v2.484h-2.016v-2.484h-1.5v6h1.5v-2.016h2.016v2.016h1.5zM18.984 3.984q0.797 0 1.406 0.609t0.609 1.406v12q0 0.797-0.609 1.406t-1.406 0.609h-13.969q-0.844 0-1.43-0.586t-0.586-1.43v-12q0-0.844 0.586-1.43t1.43-0.586h13.969z"></path>
</symbol>
<symbol id="icon-back" viewBox="0 0 20 20">
<path d="M19 7v6c0 1.103-0.896 2-2 2h-14v-3h13v-4h-11v2l-4-3.5 4-3.5v2h12c1.104 0 2 0.896 2 2z"></path>
</symbol>
<symbol id="icon-coin-dollar" viewBox="0 0 32 32">
<path d="M15 2c-8.284 0-15 6.716-15 15s6.716 15 15 15c8.284 0 15-6.716 15-15s-6.716-15-15-15zM15 29c-6.627 0-12-5.373-12-12s5.373-12 12-12c6.627 0 12 5.373 12 12s-5.373 12-12 12zM16 16v-4h4v-2h-4v-2h-2v2h-4v8h4v4h-4v2h4v2h2v-2h4l-0-8h-4zM14 16h-2v-4h2v4zM18 22h-2v-4h2v4z"></path>
</symbol>
<symbol id="icon-credit-card" viewBox="0 0 32 32">
<path d="M29 4h-26c-1.65 0-3 1.35-3 3v18c0 1.65 1.35 3 3 3h26c1.65 0 3-1.35 3-3v-18c0-1.65-1.35-3-3-3zM3 6h26c0.542 0 1 0.458 1 1v3h-28v-3c0-0.542 0.458-1 1-1zM29 26h-26c-0.542 0-1-0.458-1-1v-9h28v9c0 0.542-0.458 1-1 1zM4 20h2v4h-2zM8 20h2v4h-2zM12 20h2v4h-2z"></path>
</symbol>
<symbol id="icon-headphone" viewBox="0 0 48 48">
<path d="M0 42.5c0 1.38 1.12 2.5 2.5 2.5 1.21 0 2.22-0.859 2.45-2h0.050c0-1.1 0.9-2 2-2s2 0.9 2 2v1c0 2.21 1.79 4 4 4h4c2.21 0 4-1.79 4-4v-15c0-2.21-1.79-4-4-4h-4c-2.21 0-4 1.79-4 4v1c0 1.1-0.9 2-2 2s-2-0.9-2-2v-6c0-10.49 8.51-19 19-19s19 8.51 19 19v6c0 1.1-0.9 2-2 2s-2-0.9-2-2v-1c0-2.21-1.79-4-4-4h-4c-2.21 0-4 1.79-4 4v15c0 2.21 1.79 4 4 4h4c2.21 0 4-1.79 4-4v-1c0-1.1 0.9-2 2-2s2 0.9 2 2h0.050c0.229 1.141 1.24 2 2.45 2 1.38 0 2.5-1.12 2.5-2.5v-18.5c0-13.26-10.74-24-24-24s-24 10.74-24 24v18.5z"></path>
</symbol>
<symbol id="icon-discout" viewBox="0 0 32 32">
<path d="M31.062 16c0 2.125-1.227 3.927-3.050 4.642v2.33c0 0.55-0.446 0.996-0.995 0.996h-23.033c-0.551 0-0.996-0.446-0.996-0.996v-2.33c-1.824-0.715-3.050-2.517-3.050-4.642s1.227-3.927 3.051-4.642v-2.33c0-0.551 0.445-0.996 0.996-0.996h23.033c0.549 0 0.995 0.445 0.995 0.996v2.33c1.823 0.715 3.049 2.517 3.049 4.642zM11.952 16h-3.984v0.996h3.984v-0.996zM16.682 12.604c-0.281-0.309-0.667-0.463-1.157-0.463-0.487 0-0.871 0.154-1.151 0.463-0.281 0.308-0.422 0.782-0.422 1.422 0 0.643 0.141 1.118 0.422 1.427 0.28 0.308 0.481 0.462 0.979 0.462 0.48 0 1.049-0.154 1.33-0.462 0.28-0.309 0.421-0.784 0.421-1.427-0.001-0.64-0.142-1.115-0.422-1.422zM20.070 11.985l-5.11 8.022h1.012l5.085-8.022h-0.987zM21.661 16.587c-0.28-0.308-0.667-0.462-1.157-0.462-0.486 0-0.871 0.154-1.152 0.462-0.28 0.309-0.42 0.782-0.42 1.422 0 0.643 0.14 1.119 0.42 1.427 0.281 0.309 0.67 0.463 1.168 0.463 0.48 0 0.861-0.154 1.142-0.463 0.28-0.308 0.421-0.784 0.421-1.427-0.001-0.64-0.142-1.113-0.422-1.422zM20.495 19.128c-0.144 0-0.256-0.061-0.337-0.181-0.107-0.157-0.161-0.469-0.161-0.936s0.054-0.78 0.161-0.94c0.078-0.117 0.19-0.177 0.337-0.177s0.261 0.060 0.342 0.177c0.104 0.16 0.156 0.474 0.156 0.94s-0.054 0.78-0.161 0.94c-0.078 0.118-0.19 0.177-0.337 0.177zM15.516 15.145c-0.144 0-0.256-0.061-0.337-0.182-0.107-0.157-0.161-0.469-0.161-0.936s0.054-0.78 0.161-0.94c0.078-0.117 0.19-0.176 0.337-0.176s0.26 0.059 0.342 0.176c0.104 0.16 0.156 0.474 0.156 0.94s-0.054 0.78-0.161 0.94c-0.079 0.118-0.191 0.178-0.337 0.178z"></path>
</symbol>
<symbol id="icon-money" viewBox="0 0 30 28">
<path d="M12 18h6v-1.5h-2v-7h-1.781l-2.312 2.141 1.203 1.25c0.375-0.328 0.609-0.5 0.859-0.891h0.031v4.5h-2v1.5zM20 14c0 2.844-1.719 6.5-5 6.5s-5-3.656-5-6.5 1.719-6.5 5-6.5 5 3.656 5 6.5zM28 18v-8c-2.203 0-4-1.797-4-4h-18c0 2.203-1.797 4-4 4v8c2.203 0 4 1.797 4 4h18c0-2.203 1.797-4 4-4zM30 5v18c0 0.547-0.453 1-1 1h-28c-0.547 0-1-0.453-1-1v-18c0-0.547 0.453-1 1-1h28c0.547 0 1 0.453 1 1z"></path>
</symbol>
<symbol id="icon-cart-plus" viewBox="0 0 26 28">
<path d="M19 11c0-0.547-0.453-1-1-1h-2v-2c0-0.547-0.453-1-1-1s-1 0.453-1 1v2h-2c-0.547 0-1 0.453-1 1s0.453 1 1 1h2v2c0 0.547 0.453 1 1 1s1-0.453 1-1v-2h2c0.547 0 1-0.453 1-1zM10 24c0 1.109-0.891 2-2 2s-2-0.891-2-2 0.891-2 2-2 2 0.891 2 2zM24 24c0 1.109-0.891 2-2 2s-2-0.891-2-2 0.891-2 2-2 2 0.891 2 2zM26 7v8c0 0.5-0.375 0.938-0.891 1l-16.312 1.906c0.063 0.344 0.203 0.734 0.203 1.094s-0.219 0.688-0.375 1h14.375c0.547 0 1 0.453 1 1s-0.453 1-1 1h-16c-0.547 0-1-0.453-1-1 0-0.484 0.734-1.687 0.953-2.141l-2.766-12.859h-3.187c-0.547 0-1-0.453-1-1s0.453-1 1-1h4c1.062 0 1.078 1.25 1.234 2h18.766c0.547 0 1 0.453 1 1z"></path>
</symbol>
</defs>
</svg>
